<?xml version="1.0" standalone="no"?>
<!DOCTYPE svg PUBLIC "-//W3C//DTD SVG 20010904//EN"
 "http://www.w3.org/TR/2001/REC-SVG-20010904/DTD/svg10.dtd">
<svg version="1.0" xmlns="http://www.w3.org/2000/svg"
 width="232.000000pt" height="232.000000pt" viewBox="0 0 232.000000 232.000000"
 preserveAspectRatio="xMidYMid meet">

<g transform="translate(0.000000,232.000000) scale(0.100000,-0.100000)"
fill="#000000" stroke="none">
<path d="M1183 2060 c-45 -18 -53 -56 -53 -240 l0 -172 29 -29 c17 -17 40 -29
55 -29 24 0 26 -3 26 -45 0 -32 6 -51 20 -65 34 -34 66 -26 118 31 26 28 51
57 55 65 6 11 41 14 166 14 158 0 158 0 185 26 l26 27 0 184 0 185 -29 29 -29
29 -274 -1 c-150 0 -283 -4 -295 -9z m327 -220 c17 -10 20 -8 -47 -48 l-53
-32 0 71 0 70 43 -26 c23 -14 49 -30 57 -35z"/>
<path d="M821 1577 c-40 -20 -65 -63 -67 -115 -2 -70 -84 -215 -211 -372 -82
-101 -124 -138 -218 -195 -103 -62 -123 -81 -148 -135 -38 -84 -22 -175 42
-243 40 -44 80 -61 155 -67 l69 -5 48 -80 c52 -87 86 -115 138 -115 24 0 42 9
67 34 51 51 47 92 -15 198 -49 82 -49 83 -28 94 68 36 347 84 486 84 67 0 94
-5 129 -22 42 -20 48 -20 86 -7 26 9 49 27 64 49 36 53 27 95 -52 222 l-66
108 25 36 c45 67 46 147 0 215 -34 52 -76 73 -160 79 l-69 5 -62 100 c-34 55
-74 110 -89 122 -29 26 -85 30 -124 10z m92 -69 c22 -21 432 -683 458 -742 23
-49 -41 -99 -87 -68 -6 4 -47 66 -91 137 -399 648 -398 646 -351 679 30 21 42
20 71 -6z m-15 -316 c49 -81 133 -217 185 -302 l95 -155 -57 -7 c-31 -3 -101
-11 -156 -17 -55 -7 -147 -23 -205 -36 -57 -13 -105 -23 -106 -22 -1 1 -38 62
-84 136 l-81 134 30 36 c72 85 190 246 231 315 24 41 47 73 51 70 4 -2 48 -71
97 -152z m325 74 c61 -25 89 -98 62 -161 -8 -21 -17 -36 -19 -34 -5 6 -106
170 -117 191 -8 15 -6 18 16 18 14 0 40 -6 58 -14z m-633 -643 c0 -19 -171
-113 -208 -113 -45 0 -91 22 -127 59 -27 29 -30 39 -30 96 0 82 16 104 125
172 l84 51 78 -126 c42 -70 78 -132 78 -139z m34 -168 c49 -81 55 -105 30
-129 -17 -18 -32 -20 -52 -8 -13 9 -102 149 -102 160 0 5 65 49 77 52 1 0 22
-34 47 -75z"/>
<path d="M1529 1375 c-40 -22 -49 -63 -49 -232 0 -163 8 -201 49 -223 11 -5
86 -10 169 -10 l149 0 60 -65 c85 -92 133 -87 148 18 6 41 10 47 32 47 32 0
70 40 78 83 12 65 1 330 -15 354 -26 40 -50 43 -328 43 -213 -1 -272 -4 -293
-15z m560 -59 c8 -9 11 -65 9 -177 l-3 -164 -32 -3 c-42 -4 -73 -43 -73 -90
l0 -35 -56 61 -55 62 -162 2 -162 3 -3 169 c-2 129 1 171 10 178 7 4 126 8
264 8 202 0 254 -3 263 -14z"/>
<path d="M1661 1166 c-16 -20 -3 -46 24 -46 13 0 26 7 29 16 7 19 -10 44 -29
44 -7 0 -18 -6 -24 -14z"/>
<path d="M1796 1165 c-8 -22 4 -45 24 -45 28 0 45 27 30 45 -7 8 -20 15 -30
15 -10 0 -20 -7 -24 -15z"/>
<path d="M1935 1170 c-11 -17 5 -50 24 -50 28 0 46 26 31 45 -14 17 -46 20
-55 5z"/>
</g>
</svg>
