<?xml version="1.0" standalone="no"?>
<!DOCTYPE svg PUBLIC "-//W3C//DTD SVG 20010904//EN"
 "http://www.w3.org/TR/2001/REC-SVG-20010904/DTD/svg10.dtd">
<svg version="1.0" xmlns="http://www.w3.org/2000/svg"
 width="512.000000pt" height="512.000000pt" viewBox="0 0 512.000000 512.000000"
 preserveAspectRatio="xMidYMid meet">

<g transform="translate(0.000000,512.000000) scale(0.100000,-0.100000)"
fill="#000000" stroke="none">
<path d="M2330 4868 c-293 -27 -608 -125 -880 -274 -206 -112 -342 -215 -526
-398 -272 -271 -450 -558 -569 -921 -247 -748 -85 -1592 420 -2194 69 -82 250
-262 330 -328 145 -119 369 -253 549 -328 728 -305 1530 -230 2188 203 131 87
207 149 336 276 374 366 590 788 678 1321 26 154 26 515 1 670 -107 649 -437
1184 -965 1562 -439 314 -1007 464 -1562 411z m545 -114 c714 -98 1358 -567
1674 -1218 158 -324 224 -617 224 -981 0 -504 -149 -940 -466 -1360 -82 -108
-291 -315 -407 -402 -449 -336 -1006 -496 -1541 -443 -1030 101 -1848 883
-1995 1905 -23 161 -23 449 0 610 148 1032 982 1818 2020 1905 127 11 348 3
491 -16z"/>
<path d="M2410 4519 c-674 -45 -1303 -465 -1609 -1076 -28 -57 -51 -106 -51
-109 0 -4 207 -4 460 -1 l460 7 0 -50 0 -50 -64 0 c-36 0 -75 -4 -88 -9 -40
-15 -76 -60 -88 -112 l-12 -49 328 -825 c181 -454 332 -825 335 -825 3 0 103
234 223 521 l218 520 -123 315 c-90 229 -133 326 -157 354 -43 51 -142 99
-231 113 l-71 11 0 43 0 43 685 0 685 0 0 -49 0 -49 -100 -7 c-78 -6 -107 -12
-133 -29 -36 -24 -62 -86 -52 -126 19 -76 600 -1608 607 -1597 10 19 206 520
234 602 77 218 110 437 101 677 -7 183 -28 294 -75 398 -80 176 -111 360 -79
471 31 105 110 180 208 197 l44 7 -80 84 c-404 423 -975 640 -1575 600z"/>
<path d="M4438 3120 c-101 -254 -867 -2254 -865 -2257 6 -6 147 89 227 154 89
72 257 243 321 328 354 463 488 1037 374 1603 -28 135 -48 195 -57 172z"/>
<path d="M636 2978 c-38 -175 -49 -316 -42 -508 17 -481 204 -923 540 -1278
114 -121 271 -246 427 -340 l37 -22 -68 167 c-38 93 -246 603 -462 1135 -216
532 -396 968 -399 968 -3 0 -18 -55 -33 -122z"/>
<path d="M2278 1477 c-180 -419 -330 -770 -333 -779 -5 -13 5 -20 57 -36 323
-100 697 -108 1038 -23 155 39 174 47 166 69 -58 158 -592 1532 -596 1532 -3
0 -152 -343 -332 -763z"/>
</g>
</svg>
