<?xml version="1.0" standalone="no"?>
<!DOCTYPE svg PUBLIC "-//W3C//DTD SVG 20010904//EN"
 "http://www.w3.org/TR/2001/REC-SVG-20010904/DTD/svg10.dtd">
<svg version="1.0" xmlns="http://www.w3.org/2000/svg"
 width="342.000000pt" height="331.000000pt" viewBox="0 0 342.000000 331.000000"
 preserveAspectRatio="xMidYMid meet">

<g transform="translate(0.000000,331.000000) scale(0.100000,-0.100000)"
fill="#000000" stroke="none">
<path d="M1540 2984 c-340 -43 -595 -178 -731 -388 -90 -137 -129 -341 -98
-512 15 -87 87 -228 153 -301 155 -170 282 -230 906 -423 233 -72 320 -122
320 -183 0 -42 -53 -91 -121 -111 -111 -34 -350 -37 -519 -7 -102 18 -125 23
-235 54 -202 55 -309 36 -411 -75 -65 -72 -88 -140 -82 -242 10 -153 99 -249
281 -303 502 -148 985 -147 1292 1 174 85 291 199 370 361 168 346 67 719
-251 931 -140 93 -259 140 -707 278 -254 78 -347 124 -347 171 0 29 28 50 96
69 182 53 414 46 669 -20 177 -46 291 -25 386 69 126 125 126 330 0 456 -22
22 -58 49 -80 61 -49 24 -233 73 -362 95 -91 16 -452 28 -529 19z"/>
</g>
</svg>
